P3
30 30
255
255 255 255 255 255 255 255 255 255 255 255 255 255 255 255 255 255 255 255 255 255 255 255 255 255 255 255 255 255 255 255 255 255 255 255 255 255 255 255 255 255 255 255 255 255 255 255 255 255 255 255 255 255 255 255 255 255 255 255 255 255 255 255 255 255 255 255 255 255 255 255 255 255 255 255 255 255 255 255 255 255 255 255 255 255 255 255 255 255 255 
255 255 255 254 254 255 255 252 255 254 251 255 255 255 255 255 255 255 255 255 255 255 255 255 210 191 200 190 139 150 255 255 255 193 150 159 201 153 160 179 121 132 183 123 137 211 186 193 205 187 193 205 187 194 205 188 195 196 168 174 197 162 171 255 255 255 162 111 115 219 206 212 255 255 255 255 255 255 248 255 255 255 255 255 255 255 255 255 255 255 
255 255 255 255 255 255 252 255 255 255 255 255 234 219 222 176 96 111 123 15 35 123 0 17 119 0 0 220 29 43 151 15 21 131 32 46 215 32 44 160 5 18 161 0 8 192 2 8 196 1 12 204 0 13 202 0 12 223 34 50 188 2 11 251 24 42 252 29 45 152 0 12 149 76 90 181 148 154 255 255 255 254 255 255 255 255 255 255 255 255 
255 255 255 255 255 255 194 142 153 124 12 33 117 0 0 159 0 14 206 29 40 250 33 48 65 4 6 0 0 0 75 94 93 69 94 84 0 0 0 86 4 11 243 36 46 244 26 37 240 27 37 237 36 40 51 0 2 0 0 0 27 47 45 0 0 0 49 0 0 229 35 45 244 29 42 179 6 19 135 48 65 242 238 244 255 255 255 255 255 255 
255 255 255 255 255 255 163 102 124 222 24 40 239 27 45 247 28 38 255 31 35 60 0 5 61 71 73 255 255 255 255 255 255 255 255 255 255 255 255 35 59 54 82 5 8 255 25 41 250 36 38 2 0 0 89 103 102 255 255 255 255 255 255 255 255 255 98 113 115 6 0 0 244 33 52 245 26 37 225 28 29 134 58 70 255 255 255 255 255 255 
255 255 255 255 255 255 255 255 255 228 45 54 234 30 30 242 26 34 201 30 38 0 2 0 255 255 255 254 254 254 255 255 255 255 255 255 253 253 253 255 255 255 0 0 0 205 33 44 119 14 22 48 68 68 255 255 255 254 254 254 255 255 255 255 255 253 255 255 255 58 81 80 114 10 19 254 26 34 243 25 34 183 19 40 201 171 174 255 255 255 
255 255 255 255 254 255 255 255 255 183 138 149 171 96 105 237 27 36 113 8 17 102 114 114 255 255 255 255 255 255 99 99 99 172 172 172 255 255 255 255 255 255 87 103 100 115 10 12 23 0 0 208 215 211 255 255 255 253 253 253 127 127 127 224 225 220 255 255 255 226 223 228 0 0 0 251 33 43 246 22 35 239 31 39 255 255 255 255 255 255 
255 255 255 253 253 254 249 255 255 255 255 255 142 42 62 255 27 32 88 0 9 139 141 148 255 255 255 255 255 255 17 17 17 0 0 0 255 255 255 255 255 255 115 132 126 104 9 8 0 0 0 247 255 247 255 255 255 179 179 179 0 0 0 85 84 84 255 255 255 255 255 255 0 0 0 251 34 49 238 26 35 146 81 95 255 255 255 255 255 255 
255 255 255 253 253 254 255 255 255 138 59 71 172 2 22 247 27 33 157 21 30 33 56 50 255 255 255 253 253 253 255 255 255 210 210 209 255 255 255 255 255 255 23 39 38 155 22 27 0 0 0 216 221 222 255 255 255 255 255 255 233 234 233 255 255 255 255 255 255 225 234 233 0 0 0 251 32 43 245 25 39 168 106 121 255 255 255 255 255 255 
255 255 255 255 255 255 238 237 236 134 0 10 234 35 43 240 27 26 247 37 43 0 0 0 208 213 215 255 255 255 255 255 255 255 255 255 255 255 255 190 193 197 0 0 0 249 33 49 117 11 17 64 80 81 255 255 255 254 254 253 255 255 255 255 255 255 255 255 255 86 94 95 102 10 13 255 29 35 238 27 40 195 150 160 255 255 255 255 255 255 
255 255 255 255 255 255 134 27 44 235 31 47 243 24 34 239 32 31 241 30 38 180 32 45 0 0 0 111 125 123 233 241 241 234 237 234 121 132 137 0 0 0 187 37 40 253 21 33 245 30 47 0 0 0 113 129 127 255 255 255 255 255 255 255 255 255 145 157 163 0 0 0 229 36 50 237 27 36 243 34 49 118 0 4 255 255 255 255 255 255 
255 255 255 255 255 255 149 45 57 241 24 27 139 32 35 181 0 5 173 0 9 177 0 7 205 33 49 71 3 8 0 0 0 0 0 0 56 2 2 229 27 52 247 26 35 245 28 36 245 27 36 222 32 44 41 0 0 0 15 8 57 69 70 0 14 19 10 0 0 221 37 37 237 27 36 234 28 31 253 24 34 146 0 11 255 255 255 255 255 255 
255 255 255 255 255 255 161 96 106 230 210 169 255 255 207 226 223 175 229 214 176 236 216 180 168 105 88 134 13 25 238 39 46 253 32 46 255 25 37 183 9 23 166 0 10 171 0 8 171 0 8 172 0 10 172 0 13 218 20 38 164 15 26 184 28 32 183 1 10 176 0 9 244 28 37 244 28 34 227 26 41 145 42 53 255 255 255 255 255 255 
255 255 255 255 255 255 150 46 57 250 248 193 250 242 191 225 188 159 250 250 188 245 242 180 244 243 189 255 252 201 194 151 124 174 94 84 161 94 78 219 186 161 231 211 176 227 209 169 227 209 170 228 209 170 227 209 173 183 138 112 170 92 92 148 34 31 220 193 162 233 209 174 227 215 168 178 0 8 240 222 183 156 82 97 255 255 255 255 255 255 
255 255 255 194 139 154 176 118 96 238 228 176 160 64 73 255 255 255 255 255 255 205 173 190 211 167 141 222 190 156 234 215 174 242 238 178 62 53 53 255 244 188 252 241 190 249 240 194 249 240 193 248 249 194 253 250 199 255 249 202 246 222 181 190 129 104 245 240 183 244 249 187 242 211 174 148 33 42 254 255 201 255 255 255 223 206 211 255 255 255 
255 255 255 255 255 255 167 98 118 218 194 154 252 248 254 252 254 255 255 255 255 169 116 130 237 15 31 141 0 26 156 69 83 204 156 134 142 16 31 149 64 54 242 240 181 235 231 173 236 211 167 164 79 76 122 0 16 153 0 3 122 0 0 201 175 176 203 165 174 255 255 255 255 255 255 194 133 145 200 145 126 125 37 53 255 255 255 255 255 255 
255 255 255 255 255 255 255 249 196 255 255 204 255 255 255 255 255 255 251 254 255 134 15 31 146 13 25 151 5 23 253 255 255 198 166 176 141 15 23 241 237 244 187 130 110 162 64 66 138 9 21 136 33 45 115 3 15 247 46 64 182 144 154 255 255 255 255 255 255 253 254 255 250 251 252 249 244 191 250 249 192 167 73 73 244 252 250 255 255 255 
255 255 255 233 212 221 222 191 164 174 98 91 170 104 113 255 255 255 234 230 232 176 0 10 158 12 29 224 211 213 232 225 230 147 21 34 164 92 103 240 228 230 201 145 162 153 17 32 214 182 192 230 210 222 164 2 24 168 17 23 141 39 53 255 255 255 252 255 255 254 254 255 255 255 255 250 241 193 249 246 190 150 68 62 255 255 255 253 254 255 
255 255 255 255 255 255 237 33 35 171 10 22 168 0 11 204 177 182 197 184 184 216 2 22 193 148 164 255 255 255 107 0 21 160 0 0 246 249 255 255 255 255 255 255 255 156 67 82 140 57 65 255 255 255 186 164 163 176 22 34 158 0 4 237 231 238 255 255 255 255 255 255 194 147 154 208 159 134 246 223 190 164 74 84 255 255 255 249 255 254 
255 255 255 255 255 255 182 137 148 237 26 37 244 40 46 159 5 25 171 124 141 195 17 28 139 59 73 255 255 255 255 255 255 141 21 33 172 111 117 255 255 255 255 255 255 217 220 217 171 0 7 99 0 14 255 255 255 171 104 120 202 5 12 210 184 187 255 255 255 223 203 211 151 9 21 118 36 37 246 24 38 143 24 38 254 247 255 253 255 255 
255 255 255 255 255 255 140 44 53 233 30 43 248 27 39 198 1 14 204 179 181 133 50 59 208 21 26 120 5 27 255 255 255 216 204 203 169 7 28 221 202 207 255 255 255 208 168 179 141 18 29 242 229 228 255 255 255 158 107 116 208 4 18 202 164 172 255 255 255 123 0 15 245 40 55 245 31 31 230 35 45 229 42 47 156 89 101 255 255 255 
255 255 255 181 137 143 212 34 48 239 32 41 245 28 42 243 26 30 151 79 89 255 255 255 158 9 23 150 25 31 255 255 255 255 255 255 143 36 50 238 231 235 235 218 228 147 8 19 187 159 164 255 255 255 131 29 54 181 8 12 131 19 36 238 228 234 242 237 241 164 0 4 240 30 44 238 24 41 154 0 10 244 24 31 141 5 20 255 255 255 
255 255 255 154 53 68 236 24 32 133 0 2 221 26 39 219 37 39 244 18 28 255 255 255 133 13 32 244 41 54 255 255 255 251 255 255 217 179 193 163 113 118 222 203 208 164 20 35 147 14 36 255 255 255 155 14 35 154 11 21 232 218 221 255 255 255 177 130 143 222 56 66 110 0 0 148 69 84 175 128 142 206 14 18 151 0 0 255 255 255 
255 255 255 161 36 51 235 19 28 168 105 112 168 98 116 208 44 61 243 25 27 155 78 94 200 161 172 155 0 0 192 149 157 254 254 252 255 255 255 255 255 255 255 255 255 133 45 62 191 154 159 255 255 255 150 11 32 130 17 38 255 255 255 255 255 255 222 12 29 211 27 36 206 175 184 238 232 232 231 224 219 212 4 27 155 0 6 255 255 255 
255 255 255 161 39 46 232 18 26 193 160 161 207 183 186 155 90 102 182 21 32 248 20 33 255 255 255 233 225 233 236 235 237 251 254 250 255 255 255 255 255 255 255 255 255 255 255 255 255 255 255 255 255 255 162 91 106 181 130 138 255 255 255 228 212 218 129 0 0 124 0 13 255 255 255 255 255 255 138 63 77 245 22 43 129 38 46 255 255 255 
255 255 255 164 88 105 245 22 36 141 27 40 255 255 255 255 255 255 147 65 78 134 0 9 200 152 167 255 254 255 255 255 255 255 255 255 255 255 255 255 255 255 255 255 255 255 255 255 255 255 255 250 255 254 230 200 205 255 255 255 254 255 253 255 255 255 255 255 255 220 200 209 255 255 255 207 185 193 182 25 37 185 35 48 214 199 201 255 255 255 
255 255 255 248 255 255 157 24 37 216 31 50 174 124 133 198 110 117 151 85 93 254 47 51 115 0 0 255 255 255 255 255 255 255 255 255 255 255 255 255 255 255 255 255 255 255 255 255 255 255 255 255 255 255 255 255 255 255 255 255 255 255 255 131 24 39 227 46 54 163 94 111 220 176 180 200 83 95 243 22 27 134 28 41 255 255 255 254 254 254 
255 255 255 255 255 255 148 65 80 244 23 36 163 0 4 165 0 5 165 0 5 174 0 3 109 0 0 255 255 255 255 255 255 255 255 255 255 255 255 255 255 255 255 255 255 255 255 255 255 255 255 255 255 255 255 255 255 252 255 255 255 255 255 127 2 21 168 0 0 172 0 1 160 0 7 159 0 5 172 0 10 154 85 94 255 255 255 254 254 254 
255 255 255 255 255 251 188 143 153 227 214 217 253 255 255 250 255 255 249 255 255 246 255 255 232 225 224 255 252 255 255 255 255 255 255 255 255 255 255 255 255 255 255 255 255 255 255 255 255 255 255 255 255 255 254 255 255 251 254 253 255 254 255 229 224 220 249 252 255 247 251 255 246 254 255 248 253 255 240 233 235 168 123 129 248 255 254 255 255 255 
255 255 255 255 255 255 255 255 255 255 255 255 255 255 255 255 255 255 255 255 255 255 255 255 255 255 255 255 255 255 255 255 255 255 255 255 255 255 255 255 255 255 255 255 255 255 255 255 255 255 255 255 255 255 255 255 255 255 255 255 255 255 255 255 255 255 255 255 255 255 255 255 255 255 255 255 255 255 255 255 255 255 255 255 255 255 255 255 255 255 
